{"title":"Naruto_Shippuuden_-_221_[480p] Bzingaz.mp4","uid":6569234,"size":37328433,"categoryP":"video","categoryS":"tv_shows","magnet":"?xt=urn:btih:aba26280c4a8a0f23ddd5b8064e03148aba5da65&amp;dn=Naruto_Shippuuden_-_221_%5B480p%5D+Bzingaz.mp4&amp;tr=udp%3A%2F%2Ftracker.openbittorrent.com%3A80&amp;tr=udp%3A%2F%2Fopen.demonii.com%3A1337&amp;tr=udp%3A%2F%2Ftracker.coppersurfer.tk%3A6969&amp;tr=udp%3A%2F%2Fexodus.desync.com%3A6969","seeders":0,"leechers":1,"uploader":"bzingaz","files":1,"time":1311869313,"description":"Naruto_Shippuuden_-_221_[480p] in small size but good quality. please seed and comment..\n\nDetails are:\n\nVideo\nID                               : 1\nFormat                           : AVC\nFormat/Info                      : Advanced Video Codec\nFormat profile                   : &lt;a class=&quot;__cf_email__&quot; href=&quot;/cdn-cgi/l/email-protection&quot; data-cfemail=&quot;3b73525c537b7708150b&quot;&gt;[email&amp;#160;protected]&lt;/a&gt;&lt;script cf-hash='f9e31' type=&quot;text/javascript&quot;&gt;\n/* &lt;![CDATA[ */!function(){try{var t=&quot;currentScript&quot;in document?document.currentScript:function(){for(var t=document.getElementsByTagName(&quot;script&quot;),e=t.length;e--;)if(t[e].getAttribute(&quot;cf-hash&quot;))return t[e]}();if(t&amp;&amp;t.previousSibling){var e,r,n,i,c=t.previousSibling,a=c.getAttribute(&quot;data-cfemail&quot;);if(a){for(e=&quot;&quot;,r=parseInt(a.substr(0,2),16),n=2;a.length-n;n+=2)i=parseInt(a.substr(n,2),16)^r,e+=String.fromCharCode(i);e=document.createTextNode(e),c.parentNode.replaceChild(e,c)}}}catch(u){}}();/* ]]&gt; */&lt;/script&gt;\nFormat settings, CABAC           : Yes\nFormat settings, ReFrames        : 8 frames\nCodec ID                         : avc1\nCodec ID/Info                    : Advanced Video Coding\nDuration                         : 23mn 9s\nBit rate                         : 147 Kbps\nMaximum bit rate                 : 1 725 Kbps\nWidth                            : 640 pixels\nHeight                           : 360 pixels\nDisplay aspect ratio             : 16:9\nFrame rate mode                  : Constant\nFrame rate                       : 23.976 fps\nColor space                      : YUV\nChroma subsampling               : 4:2:0\nBit depth                        : 8 bits\nScan type                        : Progressive\nBits/(Pixel*Frame)               : 0.027\nStream size                      : 24.4 MiB (69%)\nTitle                            : Imported with GPAC 0.4.6-DEV (build 1)\nWriting library                  : x264 core 92 r1510 33d382a\nEncoding settings                : cabac=1 / ref=8 / deblock=1:1:1 / analyse=0x3:0x2 / me=umh / subme=10 / psy=1 / psy_rd=0.30:0.00 / mixed_ref=1 / me_range=32 / chroma_me=1 / trellis=2 / 8x8dct=1 / cqm=0 / deadzone=21,11 / fast_pskip=0 / chroma_qp_offset=-2 / threads=12 / sliced_threads=0 / nr=0 / decimate=1 / interlaced=0 / constrained_intra=0 / bframes=8 / b_pyramid=2 / b_adapt=2 / b_bias=0 / direct=1 / wpredb=1 / wpredp=2 / keyint=250 / keyint_min=25 / scenecut=40 / intra_refresh=0 / rc_lookahead=50 / rc=crf / mbtree=1 / crf=29.0 / qcomp=0.70 / qpmin=10 / qpmax=51 / qpstep=4 / ip_ratio=1.40 / aq=2:0.60\nEncoded date                     : UTC 2011-07-27 11:26:03\nTagged date                      : UTC 2011-07-27 11:26:04\n\nAudio\nID                               : 2\nFormat                           : AAC\nFormat/Info                      : Advanced Audio Codec\nFormat profile                   : LC\nCodec ID                         : 40\nDuration                         : 23mn 9s\nBit rate mode                    : Variable\nBit rate                         : 63.8 Kbps\nMaximum bit rate                 : 93.1 Kbps\nChannel(s)                       : 2 channels\nChannel positions                : Front: L R\nSampling rate                    : 44.1 KHz\nCompression mode                 : Lossy\nStream size                      : 10.6 MiB (30%)\nEncoded date                     : UTC 2011-07-27 11:26:04\nTagged date                      : UTC 2011-07-27 11:26:04\n","torrent":{"xt":"urn:btih:aba26280c4a8a0f23ddd5b8064e03148aba5da65","amp;dn":"Naruto_Shippuuden_-_221_%5B480p%5D+Bzingaz.mp4","amp;tr":["udp%3A%2F%2Ftracker.openbittorrent.com%3A80","udp%3A%2F%2Fopen.demonii.com%3A1337","udp%3A%2F%2Ftracker.coppersurfer.tk%3A6969","udp%3A%2F%2Fexodus.desync.com%3A6969"],"infoHash":"aba26280c4a8a0f23ddd5b8064e03148aba5da65","infoHashBuffer":{"type":"Buffer","data":[171,162,98,128,196,168,160,242,61,221,91,128,100,224,49,72,171,165,218,101]},"announce":[],"urlList":[]}}